<?xml version="1.0"?>
<svg width="1200" height="512" xmlns="http://www.w3.org/2000/svg">
  <path id="svg_1" d="m0.936443,14.364427c50,0 103.127114,19.69913 165.300868,20.635573c62.173754,0.936443 86.572018,-17.016917 153.427985,-17.016917c66.855967,0 96.254229,32 156.555098,32c60.300869,0 82.20759,-38.745771 132.20759,-38.745771c50,0 91.555098,25.970279 151.855967,25.033836c60.300869,-0.936443 73.796525,-22.525377 154.699131,-23.46182c80.902606,-0.936443 107.190672,20.635574 157.190672,20.635574c50,0 78.762689,-19.080475 128.762689,-19.080475l0,120.635573c-50,0 -35.033836,29.063557 -115,30c-79.966164,0.936443 -105.033836,-39.432098 -185,-39.432098c-79.966164,0 -114.699131,31.622771 -175,33.495656c-60.300869,1.872885 -95,-15.576132 -145,-15.576132c-50,0 -85.618656,28.050755 -150.601738,28.050755c-64.983082,0 -84.716049,-33.495656 -139.398262,-33.495656c-54.682213,0 -87.207591,35.987197 -152.190673,35.987197c-64.983082,0 -87.809327,-39.029722 -137.809327,-39.029722l0,-120.635573z" fill="#ccddff"/>
</svg>
