<?xml version="1.0"?>
<svg width="1200" height="512" xmlns="http://www.w3.org/2000/svg" xmlns:svg="http://www.w3.org/2000/svg">
 <!-- Created with SVG-edit - http://svg-edit.googlecode.com/ -->
 <g>
  <title>Layer 1</title>
  <path id="svg_1" d="m0.936443,14.364427c50,0 69.415179,33.745769 122.224507,32.809327c52.809329,-0.936442 109.983085,-40.429516 209.614543,-39.49154c99.631457,0.937977 103.745769,32 149.999999,32c46.25423,0 75.652492,-28.444902 125.652492,-28.444902c50,0 91.555098,25.970279 151.855967,25.033836c60.300869,-0.936443 73.796525,-22.525377 154.699131,-23.46182c80.902606,-0.936443 107.190672,20.635574 157.190672,20.635574c50,0 78.762689,-19.080475 128.762689,-19.080475l0,110.635573c-50,-10 -35.033836,39.063557 -115,40c-79.966164,0.936443 -105.033836,-39.432098 -185,-39.432098c-79.966164,0 -114.699131,31.622771 -175,33.495656c-60.300869,1.872885 -113.728852,-13.703247 -163.728852,-13.703247c-50,0 -66.889803,32.732968 -131.872886,32.732968c-64.983083,0 -80.970279,-44.732967 -149.699131,-44.732967c-68.728852,0 -81.588935,41.605853 -146.572017,41.605853c-64.983082,0 -83.127114,-49.966165 -133.127114,-49.966165l0,-110.635573z" stroke-opacity="0" stroke-width="0" stroke="#000000" fill="#ccddff"/>
 </g>
</svg>
